<svg width="79" height="64" viewBox="0 0 79 64" fill="none" xmlns="http://www.w3.org/2000/svg">
<path d="M7.552 45.72V46.904H2.624V50.808H6.8V51.944H2.624V57H1.168V45.72H7.552ZM12.8774 48.104C13.7307 48.104 14.4507 48.3173 15.0374 48.744C15.6347 49.1707 16.0507 49.7413 16.2854 50.456V48.216H17.7414V57H16.2854V54.76C16.0507 55.4747 15.6347 56.0453 15.0374 56.472C14.4507 56.8987 13.7307 57.112 12.8774 57.112C12.0987 57.112 11.4054 56.9307 10.7974 56.568C10.1894 56.2053 9.70938 55.688 9.35738 55.016C9.01604 54.3333 8.84538 53.5333 8.84538 52.616C8.84538 51.6987 9.01604 50.8987 9.35738 50.216C9.70938 49.5333 10.1894 49.0107 10.7974 48.648C11.4054 48.2853 12.0987 48.104 12.8774 48.104ZM13.2934 49.4C12.3974 49.4 11.6774 49.688 11.1334 50.264C10.6 50.8293 10.3334 51.6133 10.3334 52.616C10.3334 53.6187 10.6 54.408 11.1334 54.984C11.6774 55.5493 12.3974 55.832 13.2934 55.832C13.8694 55.832 14.3814 55.6987 14.8294 55.432C15.288 55.1653 15.6454 54.792 15.9014 54.312C16.1574 53.8213 16.2854 53.256 16.2854 52.616C16.2854 51.976 16.1574 51.4107 15.9014 50.92C15.6454 50.4293 15.288 50.056 14.8294 49.8C14.3814 49.5333 13.8694 49.4 13.2934 49.4ZM23.9466 48.104C25.0666 48.104 25.9946 48.4027 26.7306 49C27.4666 49.5973 27.92 50.3973 28.0906 51.4H26.5546C26.448 50.7707 26.1546 50.28 25.6746 49.928C25.2053 49.5653 24.6186 49.384 23.9146 49.384C23.4026 49.384 22.9333 49.5013 22.5066 49.736C22.0906 49.9707 21.7546 50.3333 21.4986 50.824C21.2426 51.304 21.1146 51.9013 21.1146 52.616C21.1146 53.3307 21.2426 53.9333 21.4986 54.424C21.7546 54.904 22.0906 55.2613 22.5066 55.496C22.9333 55.7307 23.4026 55.848 23.9146 55.848C24.6186 55.848 25.2053 55.6667 25.6746 55.304C26.1546 54.9413 26.448 54.4453 26.5546 53.816H28.0906C27.92 54.8293 27.4666 55.6347 26.7306 56.232C25.9946 56.8187 25.0666 57.112 23.9466 57.112C23.104 57.112 22.3573 56.9307 21.7066 56.568C21.056 56.2053 20.544 55.688 20.1706 55.016C19.808 54.3333 19.6266 53.5333 19.6266 52.616C19.6266 51.6987 19.808 50.8987 20.1706 50.216C20.544 49.5333 21.056 49.0107 21.7066 48.648C22.3573 48.2853 23.104 48.104 23.9466 48.104ZM38.0761 52.12C38.0761 52.4293 38.0548 52.696 38.0121 52.92H30.9881C31.0201 53.9227 31.3028 54.6747 31.8361 55.176C32.3801 55.6773 33.0415 55.928 33.8201 55.928C34.5241 55.928 35.1108 55.752 35.5801 55.4C36.0601 55.0373 36.3535 54.5573 36.4601 53.96H38.0121C37.9055 54.568 37.6655 55.112 37.2921 55.592C36.9295 56.072 36.4548 56.4453 35.8681 56.712C35.2815 56.9787 34.6201 57.112 33.8841 57.112C33.0415 57.112 32.2948 56.9307 31.6441 56.568C30.9935 56.2053 30.4815 55.688 30.1081 55.016C29.7455 54.3333 29.5641 53.5333 29.5641 52.616C29.5641 51.6987 29.7455 50.8987 30.1081 50.216C30.4815 49.5333 30.9935 49.0107 31.6441 48.648C32.2948 48.2853 33.0415 48.104 33.8841 48.104C34.7375 48.104 35.4788 48.2853 36.1081 48.648C36.7481 49.0107 37.2335 49.496 37.5641 50.104C37.9055 50.712 38.0761 51.384 38.0761 52.12ZM36.6041 52.216C36.6361 51.5653 36.5295 51.0213 36.2841 50.584C36.0388 50.1467 35.7028 49.8213 35.2761 49.608C34.8495 49.3947 34.3855 49.288 33.8841 49.288C33.0841 49.288 32.4121 49.5387 31.8681 50.04C31.3241 50.5307 31.0308 51.256 30.9881 52.216H36.6041ZM44.8285 48.104C45.6072 48.104 46.3005 48.2853 46.9085 48.648C47.5165 49.0107 47.9912 49.5333 48.3325 50.216C48.6845 50.8987 48.8605 51.6987 48.8605 52.616C48.8605 53.5333 48.6845 54.3333 48.3325 55.016C47.9912 55.688 47.5165 56.2053 46.9085 56.568C46.3005 56.9307 45.6072 57.112 44.8285 57.112C43.9752 57.112 43.2498 56.8987 42.6525 56.472C42.0658 56.0347 41.6605 55.464 41.4365 54.76V57H39.9805V45.16H41.4365V50.456C41.6605 49.752 42.0658 49.1867 42.6525 48.76C43.2498 48.3227 43.9752 48.104 44.8285 48.104ZM44.4125 49.4C43.8472 49.4 43.3352 49.5333 42.8765 49.8C42.4178 50.056 42.0605 50.4293 41.8045 50.92C41.5485 51.4107 41.4205 51.976 41.4205 52.616C41.4205 53.256 41.5485 53.8213 41.8045 54.312C42.0605 54.792 42.4178 55.1653 42.8765 55.432C43.3352 55.6987 43.8472 55.832 44.4125 55.832C45.3192 55.832 46.0392 55.5493 46.5725 54.984C47.1165 54.408 47.3885 53.6187 47.3885 52.616C47.3885 51.6133 47.1165 50.8293 46.5725 50.264C46.0392 49.688 45.3192 49.4 44.4125 49.4ZM54.7458 48.104C55.5884 48.104 56.3404 48.2853 57.0018 48.648C57.6738 49.0107 58.1964 49.5333 58.5698 50.216C58.9538 50.8987 59.1458 51.6987 59.1458 52.616C59.1458 53.5333 58.9538 54.3333 58.5698 55.016C58.1964 55.688 57.6738 56.2053 57.0018 56.568C56.3404 56.9307 55.5884 57.112 54.7458 57.112C53.9031 57.112 53.1458 56.9307 52.4738 56.568C51.8124 56.2053 51.2898 55.688 50.9058 55.016C50.5218 54.3333 50.3298 53.5333 50.3298 52.616C50.3298 51.6987 50.5218 50.8987 50.9058 50.216C51.2898 49.5333 51.8124 49.0107 52.4738 48.648C53.1458 48.2853 53.9031 48.104 54.7458 48.104ZM54.7458 49.384C54.2231 49.384 53.7378 49.5013 53.2898 49.736C52.8524 49.9707 52.4951 50.3333 52.2178 50.824C51.9511 51.304 51.8178 51.9013 51.8178 52.616C51.8178 53.32 51.9511 53.9173 52.2178 54.408C52.4951 54.888 52.8524 55.2453 53.2898 55.48C53.7378 55.7147 54.2231 55.832 54.7458 55.832C55.2684 55.832 55.7484 55.7147 56.1858 55.48C56.6338 55.2453 56.9911 54.888 57.2578 54.408C57.5351 53.9173 57.6737 53.32 57.6737 52.616C57.6737 51.9013 57.5351 51.304 57.2578 50.824C56.9911 50.3333 56.6338 49.9707 56.1858 49.736C55.7484 49.5013 55.2684 49.384 54.7458 49.384ZM65.027 48.104C65.8697 48.104 66.6217 48.2853 67.283 48.648C67.955 49.0107 68.4777 49.5333 68.851 50.216C69.235 50.8987 69.427 51.6987 69.427 52.616C69.427 53.5333 69.235 54.3333 68.851 55.016C68.4777 55.688 67.955 56.2053 67.283 56.568C66.6217 56.9307 65.8697 57.112 65.027 57.112C64.1843 57.112 63.427 56.9307 62.755 56.568C62.0937 56.2053 61.571 55.688 61.187 55.016C60.803 54.3333 60.611 53.5333 60.611 52.616C60.611 51.6987 60.803 50.8987 61.187 50.216C61.571 49.5333 62.0937 49.0107 62.755 48.648C63.427 48.2853 64.1843 48.104 65.027 48.104ZM65.027 49.384C64.5043 49.384 64.019 49.5013 63.571 49.736C63.1337 49.9707 62.7763 50.3333 62.499 50.824C62.2323 51.304 62.099 51.9013 62.099 52.616C62.099 53.32 62.2323 53.9173 62.499 54.408C62.7763 54.888 63.1337 55.2453 63.571 55.48C64.019 55.7147 64.5043 55.832 65.027 55.832C65.5497 55.832 66.0297 55.7147 66.467 55.48C66.915 55.2453 67.2723 54.888 67.539 54.408C67.8163 53.9173 67.955 53.32 67.955 52.616C67.955 51.9013 67.8163 51.304 67.539 50.824C67.2723 50.3333 66.915 49.9707 66.467 49.736C66.0297 49.5013 65.5497 49.384 65.027 49.384ZM76.1403 57L72.7803 53.048V57H71.3243V45.16H72.7803V52.04L76.0923 48.216H77.8683L73.9323 52.584L77.9643 57H76.1403Z" fill="black"/>
<path d="M41.625 11.6875V7.4375C41.625 6.2645 42.577 5.3125 43.75 5.3125H45.875V0H41.625C38.1039 0 35.25 2.85388 35.25 6.375V11.6875H31V17H35.25V34H41.625V17H45.875L48 11.6875H41.625Z" fill="black"/>
</svg>
