<svg width="84" height="55" viewBox="0 0 84 55" fill="none" xmlns="http://www.w3.org/2000/svg">
<path d="M46.875 26H37.125C32.6384 26 29 22.3616 29 17.875V8.125C29 3.63837 32.6384 0 37.125 0H46.875C51.3616 0 55 3.63837 55 8.125V17.875C55 22.3616 51.3616 26 46.875 26ZM52.5625 8.125C52.5625 4.98875 50.0112 2.4375 46.875 2.4375H37.125C33.9887 2.4375 31.4375 4.98875 31.4375 8.125V17.875C31.4375 21.0113 33.9887 23.5625 37.125 23.5625H46.875C50.0112 23.5625 52.5625 21.0113 52.5625 17.875V8.125Z" fill="black"/>
<path d="M42 19.5C38.4104 19.5 35.5 16.5896 35.5 13C35.5 9.41037 38.4104 6.5 42 6.5C45.5896 6.5 48.5 9.41037 48.5 13C48.5 16.5896 45.5896 19.5 42 19.5ZM42 8.9375C39.7607 8.9375 37.9375 10.7607 37.9375 13C37.9375 15.2409 39.7607 17.0625 42 17.0625C44.2393 17.0625 46.0625 15.2409 46.0625 13C46.0625 10.7607 44.2393 8.9375 42 8.9375Z" fill="black"/>
<path d="M48.9872 19.1213C49.4656 19.1213 49.8533 19.509 49.8533 19.9874C49.8533 20.4657 49.4656 20.8535 48.9872 20.8535C48.5089 20.8535 48.1211 20.4657 48.1211 19.9874C48.1211 19.509 48.5089 19.1213 48.9872 19.1213Z" fill="black"/>
<path d="M2.624 36.72V48H1.168V36.72H2.624ZM9.58888 39.072C10.6129 39.072 11.4395 39.4027 12.0689 40.064C12.6982 40.7147 13.0129 41.6587 13.0129 42.896V48H11.5569V43.024C11.5569 42.1493 11.3329 41.4773 10.8849 41.008C10.4369 40.5387 9.82888 40.304 9.06088 40.304C8.26088 40.304 7.62088 40.5653 7.14088 41.088C6.66088 41.6 6.42088 42.352 6.42088 43.344V48H4.96488V39.216H6.42088V41.296C6.64488 40.5813 7.03954 40.032 7.60488 39.648C8.18088 39.264 8.84221 39.072 9.58888 39.072ZM17.9981 39.104C18.9901 39.104 19.7848 39.3653 20.3821 39.888C20.9901 40.4 21.3581 41.0933 21.4861 41.968H20.0941C20.0301 41.4453 19.8115 41.0187 19.4381 40.688C19.0755 40.3467 18.5848 40.176 17.9661 40.176C17.4435 40.176 17.0328 40.304 16.7341 40.56C16.4461 40.8053 16.3021 41.1413 16.3021 41.568C16.3021 41.888 16.3981 42.1493 16.5901 42.352C16.7928 42.544 17.0381 42.6933 17.3261 42.8C17.6248 42.896 18.0301 43.0027 18.5421 43.12C19.1928 43.2693 19.7155 43.424 20.1101 43.584C20.5155 43.7333 20.8568 43.9787 21.1341 44.32C21.4221 44.6613 21.5661 45.12 21.5661 45.696C21.5661 46.4107 21.2941 46.992 20.7501 47.44C20.2168 47.888 19.5021 48.112 18.6061 48.112C17.5608 48.112 16.7075 47.8613 16.0461 47.36C15.3848 46.8587 14.9955 46.16 14.8781 45.264H16.2861C16.3395 45.7973 16.5688 46.2293 16.9741 46.56C17.3901 46.8907 17.9341 47.056 18.6061 47.056C19.1075 47.056 19.4968 46.928 19.7741 46.672C20.0621 46.416 20.2061 46.08 20.2061 45.664C20.2061 45.3227 20.1048 45.0507 19.9021 44.848C19.6995 44.6453 19.4488 44.4907 19.1501 44.384C18.8515 44.2773 18.4408 44.1653 17.9181 44.048C17.2675 43.8987 16.7448 43.7493 16.3501 43.6C15.9661 43.4507 15.6355 43.216 15.3581 42.896C15.0915 42.5653 14.9581 42.1227 14.9581 41.568C14.9581 40.832 15.2301 40.24 15.7741 39.792C16.3181 39.3333 17.0595 39.104 17.9981 39.104ZM27.7038 46.72V48H26.6158C25.7198 48 25.0478 47.7867 24.5998 47.36C24.1624 46.9333 23.9438 46.2187 23.9438 45.216V40.48H22.6318V39.216H23.9438V37.024H25.4158V39.216H27.6878V40.48H25.4158V45.248C25.4158 45.8133 25.5171 46.2027 25.7198 46.416C25.9331 46.6187 26.2958 46.72 26.8078 46.72H27.7038ZM33.0805 39.104C33.9338 39.104 34.6538 39.3173 35.2405 39.744C35.8378 40.1707 36.2538 40.7413 36.4885 41.456V39.216H37.9445V48H36.4885V45.76C36.2538 46.4747 35.8378 47.0453 35.2405 47.472C34.6538 47.8987 33.9338 48.112 33.0805 48.112C32.3018 48.112 31.6085 47.9307 31.0005 47.568C30.3925 47.2053 29.9125 46.688 29.5605 46.016C29.2192 45.3333 29.0485 44.5333 29.0485 43.616C29.0485 42.6987 29.2192 41.8987 29.5605 41.216C29.9125 40.5333 30.3925 40.0107 31.0005 39.648C31.6085 39.2853 32.3018 39.104 33.0805 39.104ZM33.4965 40.4C32.6005 40.4 31.8805 40.688 31.3365 41.264C30.8032 41.8293 30.5365 42.6133 30.5365 43.616C30.5365 44.6187 30.8032 45.408 31.3365 45.984C31.8805 46.5493 32.6005 46.832 33.4965 46.832C34.0725 46.832 34.5845 46.6987 35.0325 46.432C35.4912 46.1653 35.8485 45.792 36.1045 45.312C36.3605 44.8213 36.4885 44.256 36.4885 43.616C36.4885 42.976 36.3605 42.4107 36.1045 41.92C35.8485 41.4293 35.4912 41.056 35.0325 40.8C34.5845 40.5333 34.0725 40.4 33.4965 40.4ZM43.8618 39.104C44.7151 39.104 45.4351 39.3173 46.0218 39.744C46.6191 40.1707 47.0351 40.7413 47.2698 41.456V39.216H48.7258V48.144C48.7258 48.9547 48.5551 49.6747 48.2138 50.304C47.8724 50.9333 47.3924 51.424 46.7738 51.776C46.1551 52.128 45.4351 52.304 44.6138 52.304C43.4298 52.304 42.4644 52.016 41.7178 51.44C40.9711 50.8747 40.4964 50.1067 40.2938 49.136H41.7338C41.9044 49.7227 42.2244 50.1813 42.6938 50.512C43.1738 50.8533 43.7871 51.024 44.5338 51.024C45.3231 51.024 45.9738 50.768 46.4858 50.256C47.0084 49.7547 47.2698 49.0507 47.2698 48.144V45.76C47.0351 46.4747 46.6191 47.0453 46.0218 47.472C45.4351 47.8987 44.7151 48.112 43.8618 48.112C43.0831 48.112 42.3898 47.9307 41.7818 47.568C41.1738 47.2053 40.6938 46.688 40.3418 46.016C40.0004 45.3333 39.8298 44.5333 39.8298 43.616C39.8298 42.6987 40.0004 41.8987 40.3418 41.216C40.6938 40.5333 41.1738 40.0107 41.7818 39.648C42.3898 39.2853 43.0831 39.104 43.8618 39.104ZM44.2778 40.4C43.3818 40.4 42.6618 40.688 42.1178 41.264C41.5844 41.8293 41.3178 42.6133 41.3178 43.616C41.3178 44.6187 41.5844 45.408 42.1178 45.984C42.6618 46.5493 43.3818 46.832 44.2778 46.832C44.8538 46.832 45.3658 46.6987 45.8138 46.432C46.2724 46.1653 46.6298 45.792 46.8858 45.312C47.1418 44.8213 47.2698 44.256 47.2698 43.616C47.2698 42.976 47.1418 42.4107 46.8858 41.92C46.6298 41.4293 46.2724 41.056 45.8138 40.8C45.3658 40.5333 44.8538 40.4 44.2778 40.4ZM52.499 40.992C52.787 40.384 53.2083 39.9147 53.763 39.584C54.3177 39.2427 54.979 39.072 55.747 39.072V40.656H55.299C54.4777 40.656 53.8057 40.8693 53.283 41.296C52.7603 41.712 52.499 42.4053 52.499 43.376V48H51.043V39.216H52.499V40.992ZM60.7836 39.104C61.637 39.104 62.357 39.3173 62.9436 39.744C63.541 40.1707 63.957 40.7413 64.1916 41.456V39.216H65.6476V48H64.1916V45.76C63.957 46.4747 63.541 47.0453 62.9436 47.472C62.357 47.8987 61.637 48.112 60.7836 48.112C60.005 48.112 59.3116 47.9307 58.7036 47.568C58.0956 47.2053 57.6156 46.688 57.2636 46.016C56.9223 45.3333 56.7516 44.5333 56.7516 43.616C56.7516 42.6987 56.9223 41.8987 57.2636 41.216C57.6156 40.5333 58.0956 40.0107 58.7036 39.648C59.3116 39.2853 60.005 39.104 60.7836 39.104ZM61.1996 40.4C60.3036 40.4 59.5836 40.688 59.0396 41.264C58.5063 41.8293 58.2396 42.6133 58.2396 43.616C58.2396 44.6187 58.5063 45.408 59.0396 45.984C59.5836 46.5493 60.3036 46.832 61.1996 46.832C61.7756 46.832 62.2876 46.6987 62.7356 46.432C63.1943 46.1653 63.5516 45.792 63.8076 45.312C64.0636 44.8213 64.1916 44.256 64.1916 43.616C64.1916 42.976 64.0636 42.4107 63.8076 41.92C63.5516 41.4293 63.1943 41.056 62.7356 40.8C62.2876 40.5333 61.7756 40.4 61.1996 40.4ZM78.7649 39.072C79.7889 39.072 80.6102 39.4027 81.2289 40.064C81.8582 40.7147 82.1729 41.6587 82.1729 42.896V48H80.7169V43.024C80.7169 42.16 80.5035 41.4987 80.0769 41.04C79.6609 40.5813 79.0849 40.352 78.3489 40.352C77.5809 40.352 76.9622 40.608 76.4929 41.12C76.0342 41.6213 75.8049 42.3627 75.8049 43.344V48H74.3489V43.024C74.3489 42.16 74.1355 41.4987 73.7089 41.04C73.2822 40.5813 72.7062 40.352 71.9809 40.352C71.2022 40.352 70.5782 40.608 70.1089 41.12C69.6502 41.6213 69.4209 42.3627 69.4209 43.344V48H67.9649V39.216H69.4209V41.216C69.6342 40.5227 70.0129 39.9947 70.5569 39.632C71.1115 39.2587 71.7462 39.072 72.4609 39.072C73.2075 39.072 73.8529 39.264 74.3969 39.648C74.9515 40.0213 75.3462 40.576 75.5809 41.312C75.8262 40.5973 76.2369 40.048 76.8129 39.664C77.3889 39.2693 78.0395 39.072 78.7649 39.072Z" fill="black"/>
</svg>
