<svg width="71" height="60" viewBox="0 0 71 60" fill="none" xmlns="http://www.w3.org/2000/svg">
<path d="M2.624 48.456V53H1.168V41.72H4.752C6.04267 41.72 7.008 42.024 7.648 42.632C8.288 43.2293 8.608 44.0507 8.608 45.096C8.608 46.152 8.27733 46.9787 7.616 47.576C6.95467 48.1627 6 48.456 4.752 48.456H2.624ZM4.624 47.24C5.50933 47.24 6.144 47.0533 6.528 46.68C6.92267 46.3067 7.12 45.7787 7.12 45.096C7.12 44.392 6.92267 43.8587 6.528 43.496C6.144 43.1227 5.50933 42.936 4.624 42.936H2.624V47.24H4.624ZM10.0526 41.64C10.0526 41.3733 10.1433 41.16 10.3246 41C10.506 40.8293 10.746 40.744 11.0446 40.744C11.3433 40.744 11.5833 40.8293 11.7646 41C11.946 41.16 12.0366 41.3733 12.0366 41.64C12.0366 41.9067 11.946 42.1253 11.7646 42.296C11.5833 42.456 11.3433 42.536 11.0446 42.536C10.746 42.536 10.506 42.456 10.3246 42.296C10.1433 42.1253 10.0526 41.9067 10.0526 41.64ZM11.7646 44.216V53H10.3086V44.216H11.7646ZM18.7295 44.072C19.7535 44.072 20.5802 44.4027 21.2095 45.064C21.8388 45.7147 22.1535 46.6587 22.1535 47.896V53H20.6975V48.024C20.6975 47.1493 20.4735 46.4773 20.0255 46.008C19.5775 45.5387 18.9695 45.304 18.2015 45.304C17.4015 45.304 16.7615 45.5653 16.2815 46.088C15.8015 46.6 15.5615 47.352 15.5615 48.344V53H14.1055V44.216H15.5615V46.296C15.7855 45.5813 16.1802 45.032 16.7455 44.648C17.3215 44.264 17.9828 44.072 18.7295 44.072ZM28.5788 51.72V53H27.4908C26.5948 53 25.9228 52.7867 25.4748 52.36C25.0374 51.9333 24.8188 51.2187 24.8188 50.216V45.48H23.5068V44.216H24.8188V42.024H26.2908V44.216H28.5628V45.48H26.2908V50.248C26.2908 50.8133 26.3921 51.2027 26.5948 51.416C26.8081 51.6187 27.1708 51.72 27.6828 51.72H28.5788ZM33.9555 44.104C34.8088 44.104 35.5288 44.3173 36.1155 44.744C36.7128 45.1707 37.1288 45.7413 37.3635 46.456V44.216H38.8195V53H37.3635V50.76C37.1288 51.4747 36.7128 52.0453 36.1155 52.472C35.5288 52.8987 34.8088 53.112 33.9555 53.112C33.1768 53.112 32.4835 52.9307 31.8755 52.568C31.2675 52.2053 30.7875 51.688 30.4355 51.016C30.0942 50.3333 29.9235 49.5333 29.9235 48.616C29.9235 47.6987 30.0942 46.8987 30.4355 46.216C30.7875 45.5333 31.2675 45.0107 31.8755 44.648C32.4835 44.2853 33.1768 44.104 33.9555 44.104ZM34.3715 45.4C33.4755 45.4 32.7555 45.688 32.2115 46.264C31.6782 46.8293 31.4115 47.6133 31.4115 48.616C31.4115 49.6187 31.6782 50.408 32.2115 50.984C32.7555 51.5493 33.4755 51.832 34.3715 51.832C34.9475 51.832 35.4595 51.6987 35.9075 51.432C36.3662 51.1653 36.7235 50.792 36.9795 50.312C37.2355 49.8213 37.3635 49.256 37.3635 48.616C37.3635 47.976 37.2355 47.4107 36.9795 46.92C36.7235 46.4293 36.3662 46.056 35.9075 45.8C35.4595 45.5333 34.9475 45.4 34.3715 45.4ZM42.5928 45.992C42.8808 45.384 43.3021 44.9147 43.8568 44.584C44.4114 44.2427 45.0728 44.072 45.8408 44.072V45.656H45.3928C44.5714 45.656 43.8994 45.8693 43.3768 46.296C42.8541 46.712 42.5928 47.4053 42.5928 48.376V53H41.1368V44.216H42.5928V45.992ZM55.3574 48.12C55.3574 48.4293 55.336 48.696 55.2934 48.92H48.2694C48.3014 49.9227 48.584 50.6747 49.1174 51.176C49.6614 51.6773 50.3227 51.928 51.1014 51.928C51.8054 51.928 52.392 51.752 52.8614 51.4C53.3414 51.0373 53.6347 50.5573 53.7414 49.96H55.2934C55.1867 50.568 54.9467 51.112 54.5734 51.592C54.2107 52.072 53.736 52.4453 53.1494 52.712C52.5627 52.9787 51.9014 53.112 51.1654 53.112C50.3227 53.112 49.576 52.9307 48.9254 52.568C48.2747 52.2053 47.7627 51.688 47.3894 51.016C47.0267 50.3333 46.8454 49.5333 46.8454 48.616C46.8454 47.6987 47.0267 46.8987 47.3894 46.216C47.7627 45.5333 48.2747 45.0107 48.9254 44.648C49.576 44.2853 50.3227 44.104 51.1654 44.104C52.0187 44.104 52.76 44.2853 53.3894 44.648C54.0294 45.0107 54.5147 45.496 54.8454 46.104C55.1867 46.712 55.3574 47.384 55.3574 48.12ZM53.8854 48.216C53.9174 47.5653 53.8107 47.0213 53.5654 46.584C53.32 46.1467 52.984 45.8213 52.5574 45.608C52.1307 45.3947 51.6667 45.288 51.1654 45.288C50.3654 45.288 49.6934 45.5387 49.1494 46.04C48.6054 46.5307 48.312 47.256 48.2694 48.216H53.8854ZM60.0138 44.104C61.0058 44.104 61.8004 44.3653 62.3978 44.888C63.0058 45.4 63.3738 46.0933 63.5018 46.968H62.1098C62.0458 46.4453 61.8271 46.0187 61.4538 45.688C61.0911 45.3467 60.6004 45.176 59.9818 45.176C59.4591 45.176 59.0484 45.304 58.7498 45.56C58.4618 45.8053 58.3178 46.1413 58.3178 46.568C58.3178 46.888 58.4138 47.1493 58.6058 47.352C58.8084 47.544 59.0538 47.6933 59.3418 47.8C59.6404 47.896 60.0458 48.0027 60.5578 48.12C61.2084 48.2693 61.7311 48.424 62.1258 48.584C62.5311 48.7333 62.8724 48.9787 63.1498 49.32C63.4378 49.6613 63.5818 50.12 63.5818 50.696C63.5818 51.4107 63.3098 51.992 62.7658 52.44C62.2324 52.888 61.5178 53.112 60.6218 53.112C59.5764 53.112 58.7231 52.8613 58.0618 52.36C57.4004 51.8587 57.0111 51.16 56.8938 50.264H58.3018C58.3551 50.7973 58.5844 51.2293 58.9898 51.56C59.4058 51.8907 59.9498 52.056 60.6218 52.056C61.1231 52.056 61.5124 51.928 61.7898 51.672C62.0778 51.416 62.2218 51.08 62.2218 50.664C62.2218 50.3227 62.1204 50.0507 61.9178 49.848C61.7151 49.6453 61.4644 49.4907 61.1658 49.384C60.8671 49.2773 60.4564 49.1653 59.9338 49.048C59.2831 48.8987 58.7604 48.7493 58.3658 48.6C57.9818 48.4507 57.6511 48.216 57.3738 47.896C57.1071 47.5653 56.9738 47.1227 56.9738 46.568C56.9738 45.832 57.2458 45.24 57.7898 44.792C58.3338 44.3333 59.0751 44.104 60.0138 44.104ZM69.7194 51.72V53H68.6314C67.7354 53 67.0634 52.7867 66.6154 52.36C66.178 51.9333 65.9594 51.2187 65.9594 50.216V45.48H64.6474V44.216H65.9594V42.024H67.4314V44.216H69.7034V45.48H67.4314V50.248C67.4314 50.8133 67.5327 51.2027 67.7354 51.416C67.9487 51.6187 68.3114 51.72 68.8234 51.72H69.7194Z" fill="black"/>
<g clip-path="url(#clip0_87_3)">
<path d="M36.4347 0C27.6627 0.00133333 23 5.62133 23 11.7493C23 14.5907 24.588 18.136 27.1307 19.26C27.856 19.5867 27.76 19.188 28.384 16.8013C28.4333 16.6027 28.408 16.4307 28.248 16.2453C24.6133 12.0413 27.5387 3.39867 35.916 3.39867C48.04 3.39867 45.7747 20.1747 38.0253 20.1747C36.028 20.1747 34.54 18.6067 35.0107 16.6667C35.5813 14.356 36.6987 11.872 36.6987 10.2067C36.6987 6.00933 30.4453 6.632 30.4453 12.1933C30.4453 13.912 31.0533 15.072 31.0533 15.072C31.0533 15.072 29.0413 23.2 28.668 24.7187C28.036 27.2893 28.7533 31.4507 28.816 31.8093C28.8547 32.0067 29.076 32.0693 29.2 31.9067C29.3987 31.6467 31.8307 28.1773 32.512 25.6693C32.76 24.756 33.7773 21.0493 33.7773 21.0493C34.448 22.26 36.3813 23.2733 38.4413 23.2733C44.5693 23.2733 48.9987 17.8867 48.9987 11.2027C48.9773 4.79467 43.4933 0 36.4347 0V0Z" fill="black"/>
</g>
<defs>
<clipPath id="clip0_87_3">
<rect width="32" height="32" fill="white" transform="translate(20)"/>
</clipPath>
</defs>
</svg>
