<svg width="54" height="58" viewBox="0 0 54 58" fill="none" xmlns="http://www.w3.org/2000/svg">
<path d="M43 4.078C41.81 4.6 40.542 4.946 39.22 5.114C40.58 4.302 41.618 3.026 42.106 1.488C40.838 2.244 39.438 2.778 37.946 3.076C36.742 1.794 35.026 1 33.154 1C29.522 1 26.598 3.948 26.598 7.562C26.598 8.082 26.642 8.582 26.75 9.058C21.296 8.792 16.47 6.178 13.228 2.196C12.662 3.178 12.33 4.302 12.33 5.512C12.33 7.784 13.5 9.798 15.244 10.964C14.19 10.944 13.156 10.638 12.28 10.156C12.28 10.176 12.28 10.202 12.28 10.228C12.28 13.416 14.554 16.064 17.536 16.674C17.002 16.82 16.42 16.89 15.816 16.89C15.396 16.89 14.972 16.866 14.574 16.778C15.424 19.376 17.836 21.286 20.704 21.348C18.472 23.094 15.638 24.146 12.57 24.146C12.032 24.146 11.516 24.122 11 24.056C13.906 25.93 17.35 27 21.064 27C33.136 27 39.736 17 39.736 8.332C39.736 8.042 39.726 7.762 39.712 7.484C41.014 6.56 42.108 5.406 43 4.078Z" stroke="black" stroke-width="2" stroke-linejoin="round"/>
<path d="M8.08 39.72V40.904H4.896V51H3.44V40.904H0.256V39.72H8.08ZM21.5914 42.216L19.0634 51H17.4954L15.0794 43.848L12.6474 51H11.0634L8.56738 42.216H10.0394L11.9114 49.608L14.3434 42.216H15.8634L18.3114 49.592L20.1994 42.216H21.5914ZM22.6933 39.64C22.6933 39.3733 22.7839 39.16 22.9653 39C23.1466 38.8293 23.3866 38.744 23.6853 38.744C23.9839 38.744 24.2239 38.8293 24.4053 39C24.5866 39.16 24.6773 39.3733 24.6773 39.64C24.6773 39.9067 24.5866 40.1253 24.4053 40.296C24.2239 40.456 23.9839 40.536 23.6853 40.536C23.3866 40.536 23.1466 40.456 22.9653 40.296C22.7839 40.1253 22.6933 39.9067 22.6933 39.64ZM24.4053 42.216V51H22.9493V42.216H24.4053ZM30.9381 49.72V51H29.8501C28.9541 51 28.2821 50.7867 27.8341 50.36C27.3968 49.9333 27.1781 49.2187 27.1781 48.216V43.48H25.8661V42.216H27.1781V40.024H28.6501V42.216H30.9221V43.48H28.6501V48.248C28.6501 48.8133 28.7515 49.2027 28.9541 49.416C29.1675 49.6187 29.5301 49.72 30.0421 49.72H30.9381ZM36.9069 49.72V51H35.8189C34.9229 51 34.2509 50.7867 33.8029 50.36C33.3655 49.9333 33.1469 49.2187 33.1469 48.216V43.48H31.8349V42.216H33.1469V40.024H34.6189V42.216H36.8909V43.48H34.6189V48.248C34.6189 48.8133 34.7202 49.2027 34.9229 49.416C35.1362 49.6187 35.4989 49.72 36.0109 49.72H36.9069ZM46.7636 46.12C46.7636 46.4293 46.7423 46.696 46.6996 46.92H39.6756C39.7076 47.9227 39.9903 48.6747 40.5236 49.176C41.0676 49.6773 41.729 49.928 42.5076 49.928C43.2116 49.928 43.7983 49.752 44.2676 49.4C44.7476 49.0373 45.041 48.5573 45.1476 47.96H46.6996C46.593 48.568 46.353 49.112 45.9796 49.592C45.617 50.072 45.1423 50.4453 44.5556 50.712C43.969 50.9787 43.3076 51.112 42.5716 51.112C41.729 51.112 40.9823 50.9307 40.3316 50.568C39.681 50.2053 39.169 49.688 38.7956 49.016C38.433 48.3333 38.2516 47.5333 38.2516 46.616C38.2516 45.6987 38.433 44.8987 38.7956 44.216C39.169 43.5333 39.681 43.0107 40.3316 42.648C40.9823 42.2853 41.729 42.104 42.5716 42.104C43.425 42.104 44.1663 42.2853 44.7956 42.648C45.4356 43.0107 45.921 43.496 46.2516 44.104C46.593 44.712 46.7636 45.384 46.7636 46.12ZM45.2916 46.216C45.3236 45.5653 45.217 45.0213 44.9716 44.584C44.7263 44.1467 44.3903 43.8213 43.9636 43.608C43.537 43.3947 43.073 43.288 42.5716 43.288C41.7716 43.288 41.0996 43.5387 40.5556 44.04C40.0116 44.5307 39.7183 45.256 39.6756 46.216H45.2916ZM50.124 43.992C50.412 43.384 50.8333 42.9147 51.388 42.584C51.9427 42.2427 52.604 42.072 53.372 42.072V43.656H52.924C52.1027 43.656 51.4307 43.8693 50.908 44.296C50.3853 44.712 50.124 45.4053 50.124 46.376V51H48.668V42.216H50.124V43.992Z" fill="black"/>
</svg>
